<svg xmlns="http://www.w3.org/2000/svg" width="24" height="24" viewBox="0 0 24 24" fill="none" stroke="#0052CC" stroke-width="2" stroke-linecap="round" stroke-linejoin="round">
        <path d="M9.5 2A2.5 2.5 0 0 1 12 4.5v15a2.5 2.5 0 0 1-4.96.44A2.5 2.5 0 0 1 2 17.5v-11a2.5 2.5 0 0 1 2.5-2.5h5zm5 0A2.5 2.5 0 0 0 12 4.5v15a2.5 2.5 0 0 0 4.96.44A2.5 2.5 0 0 0 22 17.5v-11a2.5 2.5 0 0 0-2.5-2.5h-5z"/>
        <path d="M12 4.5C12 5.88 13.12 7 14.5 7H17a2 2 0 0 1 2 2v.5a2 2 0 0 1-2 2"/>
        <path d="M12 4.5C12 5.88 10.88 7 9.5 7H7a2 2 0 0 0-2 2v.5a2 2 0 0 0 2 2"/>
        <path d="M14 12H9"/>
        <path d="M12 4.5V16.5"/>
    </svg>